<svg width="121" height="123" viewBox="0 0 121 123" fill="none" xmlns="http://www.w3.org/2000/svg">
<path fill-rule="evenodd" clip-rule="evenodd" d="M98.1775 0C101.477 0 104.157 2.68 104.157 5.98C104.157 9.28 101.477 11.96 98.1775 11.96C94.8775 11.96 92.1975 9.28 92.1975 5.98C92.2075 2.68 94.8775 0 98.1775 0ZM99.7775 52.08C104.937 59.78 111.467 62.14 119.947 56.93C120.227 59.83 120.297 62.79 120.147 65.79C118.477 98.95 90.2475 124.48 57.0875 122.81C23.9375 121.13 -1.59252 92.9 0.0774759 59.75C1.73748 26.59 30.9475 0.78 64.0975 2.45C61.1575 11.65 63.6475 19.82 71.1275 22.6C64.3475 44.38 79.4875 58.63 99.7775 52.08ZM30.0275 47.79C34.9975 47.79 39.0175 51.82 39.0175 56.78C39.0175 61.74 34.9875 65.77 30.0275 65.77C25.0575 65.77 21.0375 61.74 21.0375 56.78C21.0375 51.82 25.0675 47.79 30.0275 47.79ZM58.3475 59.25C61.2075 59.25 63.5275 61.57 63.5275 64.43C63.5275 67.29 61.2075 69.61 58.3475 69.61C55.4875 69.61 53.1675 67.29 53.1675 64.43C53.1575 61.57 55.4775 59.25 58.3475 59.25ZM35.8675 80.59C39.3575 80.59 42.1875 83.42 42.1875 86.91C42.1875 90.4 39.3575 93.23 35.8675 93.23C32.3775 93.23 29.5475 90.4 29.5475 86.91C29.5475 83.41 32.3775 80.59 35.8675 80.59ZM49.4875 32.23C52.2275 32.23 54.4375 34.45 54.4375 37.18C54.4375 39.92 52.2175 42.13 49.4875 42.13C46.7475 42.13 44.5375 39.91 44.5375 37.18C44.5375 34.45 46.7575 32.23 49.4875 32.23ZM76.3875 82.8C80.9775 82.8 84.6875 86.52 84.6875 91.1C84.6875 95.69 80.9675 99.4 76.3875 99.4C71.7975 99.4 68.0875 95.68 68.0875 91.1C68.0875 86.52 71.8075 82.8 76.3875 82.8ZM93.8675 23.1C96.9475 23.1 99.4475 25.6 99.4475 28.68C99.4475 31.76 96.9475 34.26 93.8675 34.26C90.7875 34.26 88.2875 31.76 88.2875 28.68C88.2875 25.6 90.7875 23.1 93.8675 23.1Z" fill="#FF6838"/>
</svg>
